<svg id="discoveries_placeholder" data-name="discoveries placeholder" xmlns="http://www.w3.org/2000/svg" width="240" height="240" viewBox="0 0 240 240">
  <rect id="Screenshot_2026-04-07_at_13.23.04" data-name="Screenshot 2026-04-07 at 13.23.04" width="240" height="240" rx="6" fill="none"/>
  <g id="Group_35" data-name="Group 35" transform="translate(-461 -493.734)">
    <path id="Subtraction_8" data-name="Subtraction 8" d="M0,22.818.011,22.8C9.092,9.163,33.555,0,60.88,0s51.773,9.159,60.852,22.79c-14.8-7.065-36.977-11.122-60.852-11.122S14.811,15.729.022,22.808Z" transform="translate(513 635.763) rotate(-47)" fill="#fff"/>
    <path id="Subtraction_7" data-name="Subtraction 7" d="M.914,11.974v-.006L0,0H17.5l-.924,11.968c-2.583-.2-5.218-.3-7.832-.3s-5.251.1-7.825.3Z" transform="translate(535.761 585.706) rotate(-47)" fill="#fff"/>
    <path id="Subtraction_6" data-name="Subtraction 6" d="M15.591,87.511H0L1.8.24C4.122.079,6.455,0,8.745,0s4.586.079,6.846.233V87.511Z" transform="translate(560.862 609.116) rotate(-47)" fill="#fff"/>
  </g>
</svg>
